2.8Hzhigh3min_grf.mot
version=1
nRows=30
nColumns 19
inDegrees=yes
endheader
time	1_ground_force_vx	1_ground_force_vy	1_ground_force_vz	1_ground_force_px	1_ground_force_py	1_ground_force_pz	1_ground_torque_x	1_ground_torque_y	1_ground_torque_z	2_ground_force_vx	2_ground_force_vy	2_ground_force_vz	2_ground_force_px	2_ground_force_py	2_ground_force_pz	2_ground_torque_x	2_ground_torque_y	2_ground_torque_z
            1.253500	          -34.356126	          116.802771	            1.228081	           -0.239600	            0.006388	           -0.444083	            0.077957	           -0.265035	           -0.002787	          -38.736455	          153.795238	            4.742142	           -0.228608	            0.005682	           -0.704454	           -0.039363	            0.156282	            0.004819
            1.254000	          -36.056554	          128.162916	            0.409725	           -0.243156	            0.006379	           -0.442191	            0.086753	           -0.308362	           -0.000986	          -36.927091	          158.772509	            5.134530	           -0.229652	            0.005681	           -0.704999	           -0.009050	            0.038913	            0.001258
            1.254500	          -37.573322	          137.360105	           -0.464217	           -0.245605	            0.006387	           -0.444011	            0.106577	           -0.389623	            0.001317	          -35.067717	          162.830523	            5.148188	           -0.230298	            0.005676	           -0.704417	           -0.013059	            0.060636	            0.001917
            1.255000	          -38.264293	          146.195939	           -1.112474	           -0.244819	            0.006389	           -0.444618	            0.067662	           -0.258516	            0.001967	          -33.491111	          167.437327	            5.914787	           -0.231720	            0.005669	           -0.703917	           -0.029726	            0.148616	            0.005250
            1.255500	          -38.679164	          152.507124	           -1.542956	           -0.245685	            0.006396	           -0.446288	            0.006210	           -0.024486	            0.000248	          -32.576939	          173.882364	            6.922876	           -0.232106	            0.005671	           -0.704695	           -0.062014	            0.331004	            0.013178
            1.256000	          -40.147911	          159.718254	           -1.691820	           -0.245861	            0.006391	           -0.445132	           -0.035548	            0.141420	           -0.001498	          -31.701729	          178.118152	            7.735387	           -0.233080	            0.005667	           -0.704629	           -0.067910	            0.381558	            0.016570
            1.256500	          -42.305492	          165.309416	           -2.442061	           -0.246113	            0.006391	           -0.445111	           -0.028878	            0.112840	           -0.001667	          -30.459816	          184.566077	            8.274056	           -0.234070	            0.005664	           -0.704918	           -0.059822	            0.362478	            0.016250
            1.257000	          -45.197513	          170.541675	           -3.604731	           -0.246820	            0.006390	           -0.444746	            0.047641	           -0.179761	            0.003800	          -28.134978	          189.544205	            8.947793	           -0.234794	            0.005660	           -0.704306	           -0.035739	            0.240773	            0.011366
            1.257500	          -47.861467	          173.973876	           -5.371826	           -0.247929	            0.006387	           -0.444085	            0.132997	           -0.483437	            0.014927	          -25.905231	          194.890777	            9.482101	           -0.235588	            0.005654	           -0.703567	           -0.027382	            0.205999	            0.010023
            1.258000	          -48.278795	          176.865322	           -7.055104	           -0.246406	            0.006382	           -0.442856	            0.103359	           -0.378649	            0.015104	          -23.211555	          201.527417	           10.208521	           -0.236688	            0.005654	           -0.704733	           -0.019893	            0.172715	            0.008749
            1.258500	          -47.777140	          175.608475	           -8.208164	           -0.245286	            0.006394	           -0.445669	            0.064715	           -0.237864	            0.011118	          -20.795696	          207.242643	           10.837919	           -0.237652	            0.005650	           -0.704452	           -0.014537	            0.144870	            0.007576
            1.259000	          -46.956162	          177.417975	           -9.761583	           -0.245638	            0.006388	           -0.444256	            0.000372	           -0.001407	            0.000077	          -19.174294	          212.402541	           11.465685	           -0.238271	            0.005645	           -0.703847	           -0.028186	            0.312234	            0.016855
            1.259500	          -46.316803	          177.061893	          -10.773552	           -0.245672	            0.006390	           -0.444869	           -0.034542	            0.132048	           -0.008035	          -17.513727	          219.770045	           12.758308	           -0.238761	            0.005651	           -0.705873	           -0.024751	            0.310589	            0.018031
            1.260000	          -45.814308	          178.686938	          -11.363974	           -0.245570	            0.006390	           -0.444872	           -0.017243	            0.067253	           -0.004277	          -15.935683	          224.007670	           13.758233	           -0.239563	            0.005645	           -0.705002	           -0.020807	            0.292481	            0.017964
            1.260500	          -45.357552	          179.771176	          -11.956601	           -0.245458	            0.006391	           -0.445086	            0.027374	           -0.108493	            0.007216	          -14.036359	          230.088176	           14.717661	           -0.240262	            0.005643	           -0.705190	           -0.014868	            0.243727	            0.015590
            1.261000	          -44.532936	          180.312919	          -12.139753	           -0.244829	            0.006392	           -0.445186	            0.102506	           -0.415043	            0.027943	          -11.382989	          234.883986	           15.202890	           -0.240728	            0.005640	           -0.704908	           -0.009483	            0.195678	            0.012665
            1.261500	          -42.196684	          183.019518	          -12.638377	           -0.245236	            0.006387	           -0.444106	            0.088799	           -0.385148	            0.026596	           -8.593784	          240.969851	           15.551874	           -0.241618	            0.005640	           -0.705653	           -0.008133	            0.228053	            0.014718
            1.262000	          -38.943568	          187.528362	          -12.993978	           -0.244873	            0.006384	           -0.443413	            0.058057	           -0.279566	            0.019371	           -5.286345	          246.319173	           16.414220	           -0.242102	            0.005637	           -0.705440	           -0.004575	            0.213151	            0.014204
            1.262500	          -35.003765	          190.417110	          -13.862658	           -0.244688	            0.006392	           -0.445132	           -0.005761	            0.031340	           -0.002282	           -2.589367	          252.035216	           17.090427	           -0.242701	            0.005635	           -0.705353	           -0.002136	            0.207921	            0.014099
            1.263000	          -31.109005	          194.565939	          -14.313110	           -0.245543	            0.006395	           -0.445882	           -0.038390	            0.240105	           -0.017663	           -0.121218	          256.276420	           17.996117	           -0.243269	            0.005634	           -0.705706	           -0.000104	            0.220342	            0.015473
            1.263500	          -27.808968	          198.171890	          -14.305842	           -0.246844	            0.006397	           -0.446469	           -0.017503	            0.124730	           -0.009004	            1.922706	          261.251996	           19.092327	           -0.243490	            0.005633	           -0.705547	            0.001508	            0.204890	            0.014973
            1.264000	          -24.784612	          203.941370	          -14.380329	           -0.246075	            0.006398	           -0.446682	            0.002866	           -0.023581	            0.001663	            4.430414	          267.518872	           20.052153	           -0.244277	            0.005633	           -0.706574	            0.002860	            0.172687	            0.012944
            1.264500	          -21.989062	          209.349683	          -14.318224	           -0.246838	            0.006399	           -0.446954	            0.014586	           -0.138869	            0.009498	            7.458583	          272.316035	           20.537223	           -0.244472	            0.005630	           -0.705701	            0.003767	            0.137527	            0.010372
            1.265000	          -18.735720	          215.119600	          -14.484991	           -0.247510	            0.006395	           -0.446110	            0.016380	           -0.188069	            0.012664	           10.534101	          276.930565	           20.646190	           -0.245281	            0.005628	           -0.705928	            0.004015	            0.105542	            0.007869
            1.265500	          -15.070261	          221.611249	          -14.787258	           -0.247534	            0.006396	           -0.446228	            0.002633	           -0.038716	            0.002583	           13.654455	          282.097915	           20.710181	           -0.245537	            0.005627	           -0.706108	            0.010263	            0.212034	            0.015566
            1.266000	          -11.360585	          227.024459	          -15.827971	           -0.247348	            0.006401	           -0.447378	           -0.008550	            0.170868	           -0.011913	           16.824464	          286.527639	           21.100021	           -0.246376	            0.005623	           -0.705781	            0.010278	            0.175032	            0.012889
            1.266500	           -7.420655	          232.976543	          -16.408375	           -0.247339	            0.006399	           -0.447020	           -0.011688	            0.366944	           -0.025844	           19.337989	          291.138465	           21.678508	           -0.246799	            0.005621	           -0.705606	            0.011394	            0.171534	            0.012773
            1.267000	           -4.167342	          237.665259	          -16.671492	           -0.248290	            0.006401	           -0.447448	           -0.007188	            0.409942	           -0.028756	           21.802628	          296.301880	           22.165131	           -0.247050	            0.005621	           -0.705870	            0.011036	            0.149982	            0.011220
            1.267500	           -1.097158	          242.894147	          -16.794266	           -0.248469	            0.006403	           -0.447867	           -0.001453	            0.321734	           -0.022245	           24.127925	          301.097509	           22.368930	           -0.247798	            0.005618	           -0.705674	            0.005830	            0.072755	            0.005405
            1.268000	            1.650772	          249.927399	          -17.321218	           -0.247770	            0.006402	           -0.447634	            0.001199	            0.181595	           -0.012585	           26.177460	          304.418831	           22.614521	           -0.248193	            0.005613	           -0.704835	            0.009006	            0.104737	            0.007781
